<?xml version="1.0" encoding="UTF-8"?>
<!DOCTYPE svg PUBLIC "-//W3C//DTD SVG 1.1//EN" "http://www.w3.org/Graphics/SVG/1.1/DTD/svg11.dtd">
<svg xmlns="http://www.w3.org/2000/svg" version="1.1" width="216px" height="198px" style="shape-rendering:geometricPrecision; text-rendering:geometricPrecision; image-rendering:optimizeQuality; fill-rule:evenodd; clip-rule:evenodd" xmlns:xlink="http://www.w3.org/1999/xlink">
<g><path style="opacity:0.004" fill="#303534" d="M -0.5,3.5 C -0.5,3.16667 -0.5,2.83333 -0.5,2.5C 192.833,2.83333 192.833,3.16667 -0.5,3.5 Z"/></g>
<g><path style="opacity:0.082" fill="#7f8685" d="M -0.5,5.5 C -0.5,5.16667 -0.5,4.83333 -0.5,4.5C 48.1667,4.5 96.8333,4.5 145.5,4.5C 145.828,16.0123 145.495,27.3456 144.5,38.5C 144.5,27.5 144.5,16.5 144.5,5.5C 96.1667,5.5 47.8333,5.5 -0.5,5.5 Z"/></g>
<g><path style="opacity:0.918" fill="#1b1d1d" d="M -0.5,6.5 C -0.5,6.16667 -0.5,5.83333 -0.5,5.5C 47.8333,5.5 96.1667,5.5 144.5,5.5C 144.5,16.5 144.5,27.5 144.5,38.5C 140.445,38.8242 136.445,38.4909 132.5,37.5C 131.543,31.561 131.21,25.561 131.5,19.5C 91.8333,19.5 52.1667,19.5 12.5,19.5C 52.3299,18.5014 92.3299,18.1681 132.5,18.5C 133.32,24.7974 133.653,31.1308 133.5,37.5C 136.833,37.5 140.167,37.5 143.5,37.5C 143.5,27.1667 143.5,16.8333 143.5,6.5C 95.5,6.5 47.5,6.5 -0.5,6.5 Z"/></g>
<g><path style="opacity:0.004" fill="#947776" d="M 146.5,5.5 C 147.659,15.992 147.825,26.6586 147,37.5C 146.5,26.8385 146.333,16.1719 146.5,5.5 Z"/></g>
<g><path style="opacity:0.999" fill="#0b0c0d" d="M -0.5,6.5 C 47.5,6.5 95.5,6.5 143.5,6.5C 143.5,16.8333 143.5,27.1667 143.5,37.5C 140.167,37.5 136.833,37.5 133.5,37.5C 133.653,31.1308 133.32,24.7974 132.5,18.5C 92.3299,18.1681 52.3299,18.5014 12.5,19.5C 12.5,58.8333 12.5,98.1667 12.5,137.5C 52.5,137.5 92.5,137.5 132.5,137.5C 132.5,130.167 132.5,122.833 132.5,115.5C 136.5,115.5 140.5,115.5 144.5,115.5C 144.5,127.5 144.5,139.5 144.5,151.5C 96.1667,151.5 47.8333,151.5 -0.5,151.5C -0.5,103.167 -0.5,54.8333 -0.5,6.5 Z"/></g>
<g><path style="opacity:0.016" fill="#191b1b" d="M 13.5,20.5 C 52.5,20.5 91.5,20.5 130.5,20.5C 130.666,24.8461 130.499,29.1794 130,33.5C 129.501,29.5138 129.334,25.5138 129.5,21.5C 91.1667,21.5 52.8333,21.5 14.5,21.5C 14.5,59.5 14.5,97.5 14.5,135.5C 53.5014,135.333 92.5014,135.5 131.5,136C 92.1681,136.5 52.8347,136.667 13.5,136.5C 13.5,97.8333 13.5,59.1667 13.5,20.5 Z"/></g>
<g><path style="opacity:0.004" fill="#947776" d="M 82.5,40.5 C 86.6463,39.353 90.9796,39.1864 95.5,40C 91.1794,40.499 86.8461,40.6657 82.5,40.5 Z"/></g>
<g><path style="opacity:0.02" fill="#544240" d="M 132.5,40.5 C 136.646,39.353 140.98,39.1864 145.5,40C 141.179,40.499 136.846,40.6657 132.5,40.5 Z"/></g>
<g><path style="opacity:0.016" fill="#222424" d="M 100.5,41.5 C 102.288,40.3775 104.288,40.2109 106.5,41C 104.527,41.4955 102.527,41.6621 100.5,41.5 Z"/></g>
<g><path style="opacity:0.012" fill="#252727" d="M 107.5,42.5 C 107.897,41.475 108.563,41.3083 109.5,42C 108.906,42.4643 108.239,42.631 107.5,42.5 Z"/></g>
<g><path style="opacity:0.012" fill="#050606" d="M 110.5,42.5 C 111.833,43.1667 111.833,43.1667 110.5,42.5 Z"/></g>
<g><path style="opacity:0.008" fill="#ea3736" d="M 130.5,42.5 C 131.663,65.3297 131.83,88.3297 131,111.5C 130.5,88.5024 130.333,65.5024 130.5,42.5 Z"/></g>
<g><path style="opacity:0.208" fill="#e04d48" d="M 146.5,42.5 C 142.167,42.5 137.833,42.5 133.5,42.5C 133.5,65.5 133.5,88.5 133.5,111.5C 137.312,112.324 141.312,112.824 145.5,113C 141.179,113.499 136.846,113.666 132.5,113.5C 132.5,89.5 132.5,65.5 132.5,41.5C 137.363,41.1805 142.03,41.5139 146.5,42.5 Z"/></g>
<g><path style="opacity:0.999" fill="#0c0e0e" d="M 98.5,42.5 C 101.5,42.5 104.5,42.5 107.5,42.5C 108.209,43.404 109.209,43.7373 110.5,43.5C 113.128,45.4884 115.795,47.4884 118.5,49.5C 119.584,52.0041 120.917,54.3374 122.5,56.5C 123.167,60.1667 123.833,63.8333 124.5,67.5C 123.549,68.9187 123.216,70.5853 123.5,72.5C 122.662,72.8417 122.328,73.5084 122.5,74.5C 121.662,74.8417 121.328,75.5084 121.5,76.5C 120.662,76.8417 120.328,77.5084 120.5,78.5C 119.833,78.5 119.5,78.8333 119.5,79.5C 118.833,79.5 118.5,79.8333 118.5,80.5C 117.833,80.5 117.5,80.8333 117.5,81.5C 116.833,81.5 116.5,81.8333 116.5,82.5C 115.833,82.5 115.5,82.8333 115.5,83.5C 114.833,83.5 114.5,83.8333 114.5,84.5C 113.833,84.5 113.5,84.8333 113.5,85.5C 112.508,85.3284 111.842,85.6618 111.5,86.5C 110.508,86.3284 109.842,86.6618 109.5,87.5C 108.209,87.2627 107.209,87.596 106.5,88.5C 103.402,88.4125 103.068,88.9125 105.5,90C 102.854,90.4974 100.187,90.6641 97.5,90.5C 97.6663,97.175 97.4996,103.842 97,110.5C 96.5004,103.508 96.3337,96.5079 96.5,89.5C 98.1992,89.6602 99.8659,89.4935 101.5,89C 99.5273,88.5045 97.5273,88.3379 95.5,88.5C 95.5,95.8333 95.5,103.167 95.5,110.5C 91.1667,110.5 86.8333,110.5 82.5,110.5C 82.5,87.8333 82.5,65.1667 82.5,42.5C 87.8333,42.5 93.1667,42.5 98.5,42.5 Z M 104.5,73.5 C 101.713,74.4767 98.7131,74.81 95.5,74.5C 95.3338,68.1579 95.5005,61.8246 96,55.5C 96.4995,61.4908 96.6662,67.4908 96.5,73.5C 99.1667,73.5 101.833,73.5 104.5,73.5 Z M 106.5,58.5 C 105.453,59.0778 105.62,59.7445 107,60.5C 107.399,60.2716 107.565,59.9382 107.5,59.5C 108.117,59.6107 108.617,59.944 109,60.5C 109.805,63.6965 109.638,66.6965 108.5,69.5C 108.649,68.448 108.483,67.448 108,66.5C 107.576,69.0254 106.41,71.0254 104.5,72.5C 102.167,72.5 99.8333,72.5 97.5,72.5C 97.5,66.8333 97.5,61.1667 97.5,55.5C 100.992,55.446 103.992,56.446 106.5,58.5 Z"/></g>
<g><path style="opacity:0.995" fill="#eb1007" d="M 146.5,42.5 C 146.17,61.3408 146.503,80.0075 147.5,98.5C 154.833,98.5 162.167,98.5 169.5,98.5C 170.485,102.634 170.818,106.968 170.5,111.5C 158.167,111.5 145.833,111.5 133.5,111.5C 133.5,88.5 133.5,65.5 133.5,42.5C 137.833,42.5 142.167,42.5 146.5,42.5 Z"/></g>
<g><path style="opacity:0.012" fill="#323534" d="M 119.5,49.5 C 118.833,48.1667 118.833,48.1667 119.5,49.5 Z"/></g>
<g><path style="opacity:0.008" fill="#3a3d3c" d="M 119.5,49.5 C 120.833,50.1667 120.833,50.1667 119.5,49.5 Z"/></g>
<g><path style="opacity:0.004" fill="#343737" d="M 123.5,56.5 C 123.167,56.5 122.833,56.5 122.5,56.5C 122.833,53.8333 123.167,53.8333 123.5,56.5 Z"/></g>
<g><path style="opacity:0.012" fill="#343636" d="M 79.5,42.5 C 80.663,64.9963 80.8296,87.6629 80,110.5C 79.5,87.8358 79.3334,65.1691 79.5,42.5 Z"/></g>
<g><path style="opacity:0.364" fill="#5c5e5e" d="M 98.5,42.5 C 93.1667,42.5 87.8333,42.5 82.5,42.5C 82.5,65.1667 82.5,87.8333 82.5,110.5C 86.8333,110.5 91.1667,110.5 95.5,110.5C 92.3586,111.321 89.0252,111.821 85.5,112C 88.5,112.333 91.5,112.667 94.5,113C 90.5,113.667 86.5,113.667 82.5,113C 84.9316,111.913 84.5983,111.413 81.5,111.5C 81.5,88.1667 81.5,64.8333 81.5,41.5C 87.358,41.1778 93.0247,41.5111 98.5,42.5 Z"/></g>
<g><path style="opacity:0.012" fill="#1a1a1b" d="M 123.5,56.5 C 124.525,56.8966 124.692,57.5632 124,58.5C 123.536,57.9056 123.369,57.2389 123.5,56.5 Z"/></g>
<g><path style="opacity:0.012" fill="#1b1d1d" d="M 124.5,59.5 C 125.598,60.6009 125.765,61.9343 125,63.5C 124.51,62.2068 124.343,60.8734 124.5,59.5 Z"/></g>
<g><path style="opacity:0.004" fill="#262929" d="M 124.5,67.5 C 125.833,69.1667 125.833,70.8333 124.5,72.5C 124.5,70.8333 124.5,69.1667 124.5,67.5 Z"/></g>
<g><path style="opacity:0.008" fill="#2a2b2b" d="M 123.5,72.5 C 123.833,72.5 124.167,72.5 124.5,72.5C 124.672,73.4916 124.338,74.1583 123.5,74.5C 123.5,73.8333 123.5,73.1667 123.5,72.5 Z"/></g>
<g><path style="opacity:0.008" fill="#373a3a" d="M 122.5,74.5 C 122.833,74.5 123.167,74.5 123.5,74.5C 123.672,75.4916 123.338,76.1583 122.5,76.5C 122.5,75.8333 122.5,75.1667 122.5,74.5 Z"/></g>
<g><path style="opacity:0.004" fill="#624f4f" d="M 121.5,76.5 C 121.833,76.5 122.167,76.5 122.5,76.5C 122.672,77.4916 122.338,78.1583 121.5,78.5C 121.5,77.8333 121.5,77.1667 121.5,76.5 Z"/></g>
<g><path style="opacity:0.012" fill="#323534" d="M 120.5,78.5 C 120.833,78.5 121.167,78.5 121.5,78.5C 121.315,79.1701 120.981,79.1701 120.5,78.5 Z"/></g>
<g><path style="opacity:0.016" fill="#121615" d="M 119.5,79.5 C 119.833,79.5 120.167,79.5 120.5,79.5C 120.315,80.1701 119.981,80.1701 119.5,79.5 Z"/></g>
<g><path style="opacity:0.012" fill="#050606" d="M 118.5,80.5 C 118.833,80.5 119.167,80.5 119.5,80.5C 119.315,81.1701 118.981,81.1701 118.5,80.5 Z"/></g>
<g><path style="opacity:0.008" fill="#080b0a" d="M 117.5,81.5 C 117.833,81.5 118.167,81.5 118.5,81.5C 118.315,82.1701 117.981,82.1701 117.5,81.5 Z"/></g>
<g><path style="opacity:0.008" fill="#080b0a" d="M 116.5,82.5 C 116.833,82.5 117.167,82.5 117.5,82.5C 117.315,83.1701 116.981,83.1701 116.5,82.5 Z"/></g>
<g><path style="opacity:0.012" fill="#050606" d="M 115.5,83.5 C 115.833,83.5 116.167,83.5 116.5,83.5C 116.315,84.1701 115.981,84.1701 115.5,83.5 Z"/></g>
<g><path style="opacity:0.012" fill="#050606" d="M 114.5,84.5 C 114.833,84.5 115.167,84.5 115.5,84.5C 115.315,85.1701 114.981,85.1701 114.5,84.5 Z"/></g>
<g><path style="opacity:0.012" fill="#323534" d="M 113.5,85.5 C 113.833,85.5 114.167,85.5 114.5,85.5C 114.315,86.1701 113.981,86.1701 113.5,85.5 Z"/></g>
<g><path style="opacity:0.004" fill="#624f4f" d="M 111.5,87.5 C 111.5,87.1667 111.5,86.8333 111.5,86.5C 112.167,86.5 112.833,86.5 113.5,86.5C 113.158,87.3382 112.492,87.6716 111.5,87.5 Z"/></g>
<g><path style="opacity:0.004" fill="#232626" d="M 109.5,88.5 C 109.5,88.1667 109.5,87.8333 109.5,87.5C 110.167,87.5 110.833,87.5 111.5,87.5C 111.158,88.3382 110.492,88.6716 109.5,88.5 Z"/></g>
<g><path style="opacity:0.012" fill="#141516" d="M 106.5,88.5 C 107.5,88.5 108.5,88.5 109.5,88.5C 108.5,89.8333 107.5,89.8333 106.5,88.5 Z"/></g>
<g><path style="opacity:0.016" fill="#f68f7e" d="M 169.5,98.5 C 162.167,98.5 154.833,98.5 147.5,98.5C 147.333,79.8304 147.5,61.1637 148,42.5C 148.5,60.8303 148.667,79.1636 148.5,97.5C 155.687,97.1755 162.687,97.5088 169.5,98.5 Z"/></g>
<g><path style="opacity:0.004" fill="#947776" d="M 146.5,113.5 C 153.655,112.345 160.988,112.178 168.5,113C 161.174,113.5 153.841,113.666 146.5,113.5 Z"/></g>
<g><path style="opacity:0.098" fill="#969697" d="M 132.5,115.5 C 136.634,114.515 140.968,114.182 145.5,114.5C 145.829,127.344 145.495,140.011 144.5,152.5C 144.5,152.167 144.5,151.833 144.5,151.5C 144.5,139.5 144.5,127.5 144.5,115.5C 140.5,115.5 136.5,115.5 132.5,115.5 Z"/></g>
<g><path style="opacity:0.004" fill="#947776" d="M 146.5,115.5 C 147.659,126.993 147.826,138.659 147,150.5C 146.5,138.838 146.333,127.171 146.5,115.5 Z"/></g>
<g><path style="opacity:0.012" fill="#050606" d="M -0.5,153.5 C -0.5,153.167 -0.5,152.833 -0.5,152.5C 47.8333,152.5 96.1667,152.5 144.5,152.5C 96.3362,153.499 48.0029,153.832 -0.5,153.5 Z"/></g>
<g><path style="opacity:0.004" fill="#2b2e2e" d="M 84.5,155.5 C 87.6399,154.359 90.9733,154.192 94.5,155C 91.1832,155.498 87.8499,155.665 84.5,155.5 Z"/></g>
<g><path style="opacity:0.004" fill="#303534" d="M 96.5,155.5 C 98.2884,154.378 100.288,154.211 102.5,155C 100.527,155.495 98.5273,155.662 96.5,155.5 Z"/></g>
<g><path style="opacity:0.004" fill="#272a2a" d="M 112.5,155.5 C 113.251,154.427 114.251,154.26 115.5,155C 114.552,155.483 113.552,155.649 112.5,155.5 Z"/></g>
<g><path style="opacity:0.004" fill="#2a2e2e" d="M 121.5,155.5 C 122.946,154.387 124.613,154.22 126.5,155C 124.866,155.494 123.199,155.66 121.5,155.5 Z"/></g>
<g><path style="opacity:0.004" fill="#303534" d="M 129.5,155.5 C 131.288,154.378 133.288,154.211 135.5,155C 133.527,155.495 131.527,155.662 129.5,155.5 Z"/></g>
<g><path style="opacity:0.004" fill="#232626" d="M 138.5,155.5 C 138.897,154.475 139.563,154.308 140.5,155C 139.906,155.464 139.239,155.631 138.5,155.5 Z"/></g>
<g><path style="opacity:0.004" fill="#303534" d="M 144.5,154.5 C 145.833,155.167 145.833,155.167 144.5,154.5 Z"/></g>
<g><path style="opacity:0.004" fill="#303534" d="M 146.5,155.5 C 148.288,154.378 150.288,154.211 152.5,155C 150.527,155.495 148.527,155.662 146.5,155.5 Z"/></g>
<g><path style="opacity:0.004" fill="#303534" d="M 154.5,155.5 C 156.288,154.378 158.288,154.211 160.5,155C 158.527,155.495 156.527,155.662 154.5,155.5 Z"/></g>
<g><path style="opacity:0.004" fill="#303534" d="M 161.5,155.5 C 164.64,154.359 167.973,154.192 171.5,155C 168.183,155.498 164.85,155.665 161.5,155.5 Z"/></g>
<g><path style="opacity:0.004" fill="#2b2e2e" d="M 173.5,155.5 C 176.304,154.362 179.304,154.195 182.5,155C 179.518,155.498 176.518,155.665 173.5,155.5 Z"/></g>
<g><path style="opacity:0.008" fill="#3a3d3c" d="M 137.5,156.5 C 136.833,155.167 136.833,155.167 137.5,156.5 Z"/></g>
<g><path style="opacity:0.008" fill="#1b1c1c" d="M 82.5,156.5 C 83.525,156.897 83.6917,157.563 83,158.5C 82.5357,157.906 82.369,157.239 82.5,156.5 Z"/></g>
<g><path style="opacity:1" fill="#1c1e1e" d="M 137.5,156.5 C 142.944,155.892 147.944,156.558 152.5,158.5C 152.167,158.5 151.833,158.5 151.5,158.5C 150.566,159.568 150.232,160.901 150.5,162.5C 152.5,162.5 154.5,162.5 156.5,162.5C 156.768,160.901 156.434,159.568 155.5,158.5C 154.833,158.5 154.167,158.5 153.5,158.5C 157.951,157.173 162.784,156.506 168,156.5C 172.833,156.667 177.667,156.833 182.5,157C 184.155,158.444 184.822,160.278 184.5,162.5C 182.078,164.048 182.078,165.714 184.5,167.5C 185.567,169.879 184.567,170.879 181.5,170.5C 181.068,169.29 180.401,168.29 179.5,167.5C 179.573,165.973 178.906,164.973 177.5,164.5C 176.199,165.884 176.199,167.384 177.5,169C 175.934,169.765 174.601,169.598 173.5,168.5C 174.751,165.207 174.751,161.874 173.5,158.5C 172.702,158.957 172.369,159.624 172.5,160.5C 170.876,160.64 169.71,159.973 169,158.5C 168.667,159.167 168.333,159.833 168,160.5C 167.722,159.584 167.222,158.918 166.5,158.5C 165.566,159.568 165.232,160.901 165.5,162.5C 167.415,162.784 169.081,162.451 170.5,161.5C 171.404,162.209 171.737,163.209 171.5,164.5C 169.833,164.5 168.167,164.5 166.5,164.5C 165.837,166.042 165.17,167.709 164.5,169.5C 163.833,165.687 163.166,162.021 162.5,158.5C 162.167,158.5 161.833,158.5 161.5,158.5C 161.167,158.5 160.833,158.5 160.5,158.5C 160.167,158.5 159.833,158.5 159.5,158.5C 158.681,161.305 158.181,164.305 158,167.5C 157.667,167.833 157.333,168.167 157,168.5C 156.79,166.942 156.29,165.609 155.5,164.5C 154.167,164.5 152.833,164.5 151.5,164.5C 151.232,166.099 151.566,167.432 152.5,168.5C 150.721,170.344 148.388,171.01 145.5,170.5C 145.167,169.167 144.833,169.167 144.5,170.5C 135.711,170.938 132.711,166.938 135.5,158.5C 136.5,158.167 137.167,157.5 137.5,156.5 Z M 140.5,159.5 C 140.56,158.957 140.893,158.624 141.5,158.5C 142.386,159.325 142.719,160.325 142.5,161.5C 143.5,161.5 144.5,161.5 145.5,161.5C 145.784,163.415 145.451,165.081 144.5,166.5C 143.432,165.566 142.099,165.232 140.5,165.5C 140.5,163.833 140.5,162.167 140.5,160.5C 141.833,160.167 141.833,159.833 140.5,159.5 Z M 145.5,161.5 C 145.281,160.325 145.614,159.325 146.5,158.5C 147.657,161.784 147.824,165.118 147,168.5C 146.814,165.964 146.314,163.631 145.5,161.5 Z M 166.5,158.5 C 167.222,158.918 167.722,159.584 168,160.5C 168.333,159.833 168.667,159.167 169,158.5C 169.71,159.973 170.876,160.64 172.5,160.5C 172.5,162.167 172.5,163.833 172.5,165.5C 170.801,165.34 169.134,165.506 167.5,166C 169.932,167.087 169.598,167.587 166.5,167.5C 166.5,166.5 166.5,165.5 166.5,164.5C 168.167,164.5 169.833,164.5 171.5,164.5C 171.737,163.209 171.404,162.209 170.5,161.5C 169.167,161.5 167.833,161.5 166.5,161.5C 166.5,160.5 166.5,159.5 166.5,158.5 Z M 173.5,168.5 C 172.596,167.791 172.263,166.791 172.5,165.5C 173.833,163.833 173.833,162.167 172.5,160.5C 172.369,159.624 172.702,158.957 173.5,158.5C 174.751,161.874 174.751,165.207 173.5,168.5 Z M 179.5,159.5 C 178.637,160.463 177.97,160.463 177.5,159.5C 178.257,158.227 178.923,158.227 179.5,159.5 Z M 179.5,159.5 C 180.404,160.209 180.737,161.209 180.5,162.5C 179.448,162.649 178.448,162.483 177.5,162C 178.756,161.583 179.423,160.75 179.5,159.5 Z M 151.5,158.5 C 151.833,158.5 152.167,158.5 152.5,158.5C 152.369,159.376 152.702,160.043 153.5,160.5C 154.463,160.03 154.463,159.363 153.5,158.5C 154.167,158.5 154.833,158.5 155.5,158.5C 155.5,159.5 155.5,160.5 155.5,161.5C 154.167,161.5 152.833,161.5 151.5,161.5C 151.5,160.5 151.5,159.5 151.5,158.5 Z M 155.5,164.5 C 155.843,166.483 155.176,167.817 153.5,168.5C 154.562,167.425 154.562,166.425 153.5,165.5C 152.614,166.325 152.281,167.325 152.5,168.5C 151.566,167.432 151.232,166.099 151.5,164.5C 152.833,164.5 154.167,164.5 155.5,164.5 Z M 177.5,164.5 C 178.906,164.973 179.573,165.973 179.5,167.5C 177.952,167.179 177.285,166.179 177.5,164.5 Z"/></g>
<g><path style="opacity:0.012" fill="#191b1b" d="M 185.5,162.5 C 185.343,161.127 185.51,159.793 186,158.5C 186.765,160.066 186.598,161.399 185.5,162.5 Z"/></g>
<g><path style="opacity:0.012" fill="#0b0c0d" d="M 139.5,160.5 C 139.833,160.5 140.167,160.5 140.5,160.5C 140.5,162.167 140.5,163.833 140.5,165.5C 142.099,165.232 143.432,165.566 144.5,166.5C 142.833,166.5 141.167,166.5 139.5,166.5C 139.5,164.5 139.5,162.5 139.5,160.5 Z"/></g>
<g><path style="opacity:0.075" fill="#898e8e" d="M 151.5,158.5 C 151.5,159.5 151.5,160.5 151.5,161.5C 152.833,161.5 154.167,161.5 155.5,161.5C 155.5,160.5 155.5,159.5 155.5,158.5C 156.434,159.568 156.768,160.901 156.5,162.5C 154.5,162.5 152.5,162.5 150.5,162.5C 150.232,160.901 150.566,159.568 151.5,158.5 Z M 151.5,158.5 C 151.833,158.5 152.167,158.5 152.5,158.5C 152.369,159.376 152.702,160.043 153.5,160.5C 154.463,160.03 154.463,159.363 153.5,158.5C 154.167,158.5 154.833,158.5 155.5,158.5C 155.5,159.5 155.5,160.5 155.5,161.5C 154.167,161.5 152.833,161.5 151.5,161.5C 151.5,160.5 151.5,159.5 151.5,158.5 Z"/></g>
<g><path style="opacity:0.008" fill="#2c2e2e" d="M 152.5,158.5 C 152.833,158.5 153.167,158.5 153.5,158.5C 154.463,159.363 154.463,160.03 153.5,160.5C 152.702,160.043 152.369,159.376 152.5,158.5 Z"/></g>
<g><path style="opacity:0.075" fill="#8e9393" d="M 166.5,158.5 C 166.5,159.5 166.5,160.5 166.5,161.5C 167.833,161.5 169.167,161.5 170.5,161.5C 169.081,162.451 167.415,162.784 165.5,162.5C 165.232,160.901 165.566,159.568 166.5,158.5 Z"/></g>
<g><path style="opacity:0.008" fill="#080b0a" d="M 184.5,162.5 C 184.833,162.5 185.167,162.5 185.5,162.5C 185.315,163.17 184.981,163.17 184.5,162.5 Z"/></g>
<g><path style="opacity:1" fill="#212323" d="M 106.5,165.5 C 106.281,166.675 106.614,167.675 107.5,168.5C 108.107,168.376 108.44,168.043 108.5,167.5C 108.5,166.5 108.5,165.5 108.5,164.5C 110.267,162.208 111.267,159.542 111.5,156.5C 113.167,156.5 114.833,156.5 116.5,156.5C 116.263,157.791 116.596,158.791 117.5,159.5C 117.263,160.791 117.596,161.791 118.5,162.5C 118.351,163.552 118.517,164.552 119,165.5C 119.973,163.608 120.64,161.608 121,159.5C 121.333,162.167 121.667,164.833 122,167.5C 122.957,163.901 122.457,160.568 120.5,157.5C 123.467,156.121 126.134,156.454 128.5,158.5C 129.152,157.275 130.319,156.608 132,156.5C 133.681,156.608 134.848,157.275 135.5,158.5C 133.577,162.029 132.911,166.029 133.5,170.5C 132.5,170.5 131.5,170.5 130.5,170.5C 130.5,169.833 130.167,169.5 129.5,169.5C 129.672,168.508 129.338,167.842 128.5,167.5C 127.89,168.391 127.557,169.391 127.5,170.5C 123.167,170.5 118.833,170.5 114.5,170.5C 114.5,169.167 113.833,168.5 112.5,168.5C 107.265,170.45 101.598,171.117 95.5,170.5C 95.5,168.167 95.5,165.833 95.5,163.5C 93.7422,164.999 91.9088,165.332 90,164.5C 89.8333,165 89.6667,165.5 89.5,166C 90.5089,167.168 91.5089,168.335 92.5,169.5C 89.9135,170.48 87.2469,170.813 84.5,170.5C 84.3347,166.818 84.5014,163.152 85,159.5C 85.3333,162.5 85.6667,165.5 86,168.5C 86.9789,164.577 86.4789,160.91 84.5,157.5C 86.1667,157.167 87.8333,156.833 89.5,156.5C 94.0718,156.699 98.7385,157.032 103.5,157.5C 101.711,160.556 101.044,163.889 101.5,167.5C 103.322,167.169 104.989,166.502 106.5,165.5 Z M 112.5,168.5 C 111.957,168.44 111.624,168.107 111.5,167.5C 112.723,166.386 114.056,166.219 115.5,167C 114.263,167.232 113.263,167.732 112.5,168.5 Z M 127.5,165.5 C 126.778,165.918 126.278,166.584 126,167.5C 125.333,165.5 125.333,163.5 126,161.5C 126.41,162.901 126.91,164.234 127.5,165.5 Z M 113.5,161.5 C 114.773,162.077 114.773,162.743 113.5,163.5C 112.537,163.03 112.537,162.363 113.5,161.5 Z M 128.5,158.5 C 129.167,158.5 129.833,158.5 130.5,158.5C 130.167,159.167 129.833,159.833 129.5,160.5C 128.662,160.158 128.328,159.492 128.5,158.5 Z M 95.5,163.5 C 96.1481,161.914 96.6481,160.247 97,158.5C 97.6667,161.833 97.6667,165.167 97,168.5C 96.8019,166.618 96.3019,164.952 95.5,163.5 Z M 91.5,159.5 C 92.404,160.209 92.7373,161.209 92.5,162.5C 91.5,162.5 90.5,162.5 89.5,162.5C 89.238,161.022 89.5713,159.689 90.5,158.5C 91.1067,158.624 91.44,158.957 91.5,159.5 Z M 128.5,167.5 C 129.338,167.842 129.672,168.508 129.5,169.5C 128.833,169.5 128.5,169.833 128.5,170.5C 128.167,170.5 127.833,170.5 127.5,170.5C 127.557,169.391 127.89,168.391 128.5,167.5 Z"/></g>
<g><path style="opacity:0.025" fill="#e4e4e4" d="M 106.5,165.5 C 107.167,166.167 107.833,166.833 108.5,167.5C 108.44,168.043 108.107,168.376 107.5,168.5C 106.614,167.675 106.281,166.675 106.5,165.5 Z"/></g>
<g><path style="opacity:0.012" fill="#1a1a1b" d="M 108.5,164.5 C 107.475,164.103 107.308,163.437 108,162.5C 108.464,163.094 108.631,163.761 108.5,164.5 Z"/></g>
<g><path style="opacity:0.004" fill="#303534" d="M 104.5,164.5 C 104.897,163.475 105.563,163.308 106.5,164C 105.906,164.464 105.239,164.631 104.5,164.5 Z"/></g>
<g><path style="opacity:0.012" fill="#171818" d="M 118.5,162.5 C 118.369,161.761 118.536,161.094 119,160.5C 119.692,161.437 119.525,162.103 118.5,162.5 Z"/></g>
<g><path style="opacity:0.012" fill="#1a1a1b" d="M 108.5,159.5 C 109.525,159.897 109.692,160.563 109,161.5C 108.536,160.906 108.369,160.239 108.5,159.5 Z"/></g>
<g><path style="opacity:0.004" fill="#303434" d="M 102.5,159.5 C 103.629,161.628 103.796,163.961 103,166.5C 102.503,164.19 102.337,161.857 102.5,159.5 Z"/></g>
<g><path style="opacity:0.047" fill="#acaeae" d="M 130.5,158.5 C 131.451,159.919 131.784,161.585 131.5,163.5C 131.167,163.5 130.833,163.5 130.5,163.5C 130.737,162.209 130.404,161.209 129.5,160.5C 129.833,159.833 130.167,159.167 130.5,158.5 Z"/></g>
<g><path style="opacity:0.008" fill="#1d1f1f" d="M 117.5,159.5 C 117.461,158.244 117.961,157.244 119,156.5C 119.585,157.998 119.085,158.998 117.5,159.5 Z"/></g>
<g><path style="opacity:0.012" fill="#171818" d="M 109.5,156.5 C 110.525,156.897 110.692,157.563 110,158.5C 109.536,157.906 109.369,157.239 109.5,156.5 Z"/></g>
<g><path style="opacity:0.008" fill="#3a3d3c" d="M 104.5,156.5 C 105.525,156.897 105.692,157.563 105,158.5C 104.536,157.906 104.369,157.239 104.5,156.5 Z"/></g>
<g><path style="opacity:0.004" fill="#2e3232" d="M 153.5,168.5 C 153.167,168.5 152.833,168.5 152.5,168.5C 152.281,167.325 152.614,166.325 153.5,165.5C 154.562,166.425 154.562,167.425 153.5,168.5 Z"/></g>
<g><path style="opacity:0.008" fill="#352d2d" d="M 184.5,167.5 C 184.369,166.761 184.536,166.094 185,165.5C 185.692,166.437 185.525,167.103 184.5,167.5 Z"/></g>
<g><path style="opacity:0.004" fill="#303534" d="M 186.5,168.5 C 187.833,169.167 187.833,169.167 186.5,168.5 Z"/></g>
<g><path style="opacity:0.004" fill="#232626" d="M 82.5,168.5 C 83.525,168.897 83.6917,169.563 83,170.5C 82.5357,169.906 82.369,169.239 82.5,168.5 Z"/></g>
<g><path style="opacity:0.29" fill="#303232" d="M 159.5,158.5 C 159.833,171.833 160.167,171.833 160.5,158.5C 160.833,158.5 161.167,158.5 161.5,158.5C 161.833,171.833 162.167,171.833 162.5,158.5C 163.166,162.021 163.833,165.687 164.5,169.5C 165.17,167.709 165.837,166.042 166.5,164.5C 166.5,165.5 166.5,166.5 166.5,167.5C 169.598,167.587 169.932,167.087 167.5,166C 169.134,165.506 170.801,165.34 172.5,165.5C 172.263,166.791 172.596,167.791 173.5,168.5C 174.601,169.598 175.934,169.765 177.5,169C 176.199,167.384 176.199,165.884 177.5,164.5C 177.285,166.179 177.952,167.179 179.5,167.5C 179.343,168.873 179.51,170.207 180,171.5C 180.383,170.944 180.883,170.611 181.5,170.5C 184.305,171.319 187.305,171.819 190.5,172C 178.5,172.667 166.5,172.667 154.5,172C 162.5,171.667 170.5,171.333 178.5,171C 169.773,171.141 161.44,170.308 153.5,168.5C 155.176,167.817 155.843,166.483 155.5,164.5C 156.29,165.609 156.79,166.942 157,168.5C 157.333,168.167 157.667,167.833 158,167.5C 158.181,164.305 158.681,161.305 159.5,158.5 Z"/></g>
<g><path style="opacity:0.024" fill="#292a2a" d="M 114.5,170.5 C 118.833,171.833 123.167,171.833 127.5,170.5C 127.833,170.5 128.167,170.5 128.5,170.5C 128.938,171.506 129.604,171.506 130.5,170.5C 131.9,171.1 132.9,172.1 133.5,173.5C 132.833,173.5 132.167,173.5 131.5,173.5C 122.598,172.185 113.598,172.185 104.5,173.5C 103.167,172.167 101.833,172.167 100.5,173.5C 99.234,172.91 97.9007,172.41 96.5,172C 102.581,171.791 108.581,171.291 114.5,170.5 Z"/></g>
<g><path style="opacity:0.024" fill="#2a2b2c" d="M 144.5,170.5 C 144.833,170.5 145.167,170.5 145.5,170.5C 147.631,171.314 149.964,171.814 152.5,172C 146.833,172.667 141.167,172.667 135.5,172C 136,171.5 136.5,171 137,170.5C 139.605,171.814 142.105,171.814 144.5,170.5 Z"/></g>
<g><path style="opacity:0.012" fill="#323534" d="M 194.5,172.5 C 197.64,171.359 200.973,171.192 204.5,172C 201.183,172.498 197.85,172.665 194.5,172.5 Z"/></g>
<g><path style="opacity:0.016" fill="#1e2121" d="M 208.5,172.5 C 210.607,171.532 212.941,171.198 215.5,171.5C 215.5,171.833 215.5,172.167 215.5,172.5C 213.167,172.5 210.833,172.5 208.5,172.5 Z"/></g>
<g><path style="opacity:0.008" fill="#3a3d3c" d="M 191.5,172.5 C 192.833,173.167 192.833,173.167 191.5,172.5 Z"/></g>
<g><path style="opacity:0.008" fill="#080b0a" d="M 208.5,172.5 C 208.5,172.833 208.5,173.167 208.5,173.5C 207.83,173.019 207.83,172.685 208.5,172.5 Z"/></g>
<g><path style="opacity:0.341" fill="#464849" d="M 193.5,175.5 C 193.5,175.833 193.5,176.167 193.5,176.5C 192.022,177.448 191.022,178.781 190.5,180.5C 190.737,179.209 190.404,178.209 189.5,177.5C 188.791,176.596 187.791,176.263 186.5,176.5C 186.5,179.5 186.5,182.5 186.5,185.5C 185.518,182.038 185.185,178.371 185.5,174.5C 184.127,174.343 182.793,174.51 181.5,175C 182.056,175.383 182.389,175.883 182.5,176.5C 181.683,178.969 181.183,181.635 181,184.5C 180.667,181.833 180.333,179.167 180,176.5C 179.502,179.482 179.335,182.482 179.5,185.5C 178.84,184.036 178.507,182.369 178.5,180.5C 178.613,178.359 179.28,176.525 180.5,175C 178.288,174.211 176.288,174.378 174.5,175.5C 174.167,175.5 173.833,175.5 173.5,175.5C 167.5,174.167 161.5,174.167 155.5,175.5C 155.167,175.5 154.833,175.5 154.5,175.5C 160.128,174.171 166.128,173.504 172.5,173.5C 178.5,173.667 184.5,173.833 190.5,174C 191.527,174.513 192.527,175.013 193.5,175.5 Z M 182.5,176.5 C 182.5,179.5 182.5,182.5 182.5,185.5C 181.5,185.5 180.5,185.5 179.5,185.5C 179.335,182.482 179.502,179.482 180,176.5C 180.333,179.167 180.667,181.833 181,184.5C 181.183,181.635 181.683,178.969 182.5,176.5 Z"/></g>
<g><path style="opacity:0.012" fill="#323534" d="M 82.5,173.5 C 83.525,173.897 83.6917,174.563 83,175.5C 82.5357,174.906 82.369,174.239 82.5,173.5 Z"/></g>
<g><path style="opacity:0.012" fill="#0c0c0d" d="M 171.5,178.5 C 171.662,180.527 171.495,182.527 171,184.5C 170.211,182.288 170.378,180.288 171.5,178.5 Z"/></g>
<g><path style="opacity:0.818" fill="#262728" d="M 95.5,182.5 C 96.2675,186.139 96.9342,185.806 97.5,181.5C 98.871,179.064 99.871,176.397 100.5,173.5C 101.833,173.5 103.167,173.5 104.5,173.5C 105.174,177.833 106.174,178.167 107.5,174.5C 115.472,173.502 123.472,173.169 131.5,173.5C 131.842,174.338 132.508,174.672 133.5,174.5C 133.328,175.492 133.662,176.158 134.5,176.5C 134.804,175.85 135.137,175.183 135.5,174.5C 142.089,172.944 148.423,173.278 154.5,175.5C 154.833,176.833 155.167,178.167 155.5,179.5C 154.637,178.537 153.97,178.537 153.5,179.5C 154.127,180.417 154.461,181.417 154.5,182.5C 153.034,181.653 152.2,180.32 152,178.5C 151.108,181.453 151.608,184.119 153.5,186.5C 145.862,187.497 138.196,187.831 130.5,187.5C 130.672,186.508 130.338,185.842 129.5,185.5C 129.5,186.167 129.5,186.833 129.5,187.5C 121.996,188.202 119.496,184.868 122,177.5C 122.192,179.577 122.692,181.577 123.5,183.5C 124.215,181.213 124.549,179.046 124.5,177C 123.207,176.51 121.873,176.343 120.5,176.5C 120.5,179.833 120.5,183.167 120.5,186.5C 119.833,186.5 119.5,186.833 119.5,187.5C 118.209,187.263 117.209,187.596 116.5,188.5C 114.883,187.962 113.216,187.629 111.5,187.5C 111.167,186.5 110.5,185.833 109.5,185.5C 109.03,186.693 108.03,187.36 106.5,187.5C 104.97,187.36 103.97,186.693 103.5,185.5C 104.751,184.528 104.418,183.861 102.5,183.5C 99.5137,184.057 99.1804,184.723 101.5,185.5C 96.2649,187.45 90.5982,188.117 84.5,187.5C 86.3131,184.071 86.8131,180.404 86,176.5C 85.6667,179.167 85.3333,181.833 85,184.5C 84.5014,180.848 84.3347,177.182 84.5,173.5C 87.2469,173.187 89.9135,173.52 92.5,174.5C 89.9136,177.614 88.9136,181.281 89.5,185.5C 91.6716,184.794 93.6716,183.794 95.5,182.5 Z M 143.5,184.5 C 142.791,185.404 141.791,185.737 140.5,185.5C 140.343,184.127 140.51,182.793 141,181.5C 141.236,183.119 142.069,184.119 143.5,184.5 Z M 133.5,181.5 C 133.5,182.167 133.5,182.833 133.5,183.5C 131.067,182.452 131.067,181.786 133.5,181.5 Z M 97.5,181.5 C 96.9342,185.806 96.2675,186.139 95.5,182.5C 96.1667,182.167 96.8333,181.833 97.5,181.5 Z M 101.5,178.5 C 103.085,179.002 103.585,180.002 103,181.5C 101.961,180.756 101.461,179.756 101.5,178.5 Z M 146.5,178.5 C 146.843,180.483 146.176,181.817 144.5,182.5C 144.804,181.85 145.137,181.183 145.5,180.5C 143.955,179.548 142.288,179.215 140.5,179.5C 140.5,178.5 140.5,177.5 140.5,176.5C 143.598,176.413 143.932,176.913 141.5,178C 143.134,178.494 144.801,178.66 146.5,178.5 Z M 134.5,176.5 C 135.552,176.351 136.552,176.517 137.5,177C 136.167,179.667 136.167,182.333 137.5,185C 135.537,185.844 134.204,185.344 133.5,183.5C 135.138,182.295 135.471,180.962 134.5,179.5C 134.5,178.5 134.5,177.5 134.5,176.5 Z M 127.5,176.5 C 128.5,176.5 129.5,176.5 130.5,176.5C 130.5,177.5 130.5,178.5 130.5,179.5C 129.5,179.5 128.5,179.5 127.5,179.5C 127.5,178.5 127.5,177.5 127.5,176.5 Z M 109.5,185.5 C 108.609,184.739 107.942,183.739 107.5,182.5C 108.189,180.556 108.689,178.556 109,176.5C 109.498,179.482 109.665,182.482 109.5,185.5 Z M 146.5,178.5 C 146.351,177.448 146.517,176.448 147,175.5C 148.739,178.682 148.905,182.016 147.5,185.5C 147.669,183.236 147.336,180.903 146.5,178.5 Z M 129.5,185.5 C 127.775,185.157 127.275,184.157 128,182.5C 129.039,183.244 129.539,184.244 129.5,185.5 Z M 144.5,182.5 C 144.672,183.492 144.338,184.158 143.5,184.5C 141.969,183.075 142.302,182.409 144.5,182.5 Z M 103.5,185.5 C 102.833,184.167 102.167,184.167 101.5,185.5C 99.1804,184.723 99.5137,184.057 102.5,183.5C 104.418,183.861 104.751,184.528 103.5,185.5 Z"/></g>
<g><path style="opacity:0.008" fill="#3a3d3c" d="M 133.5,173.5 C 134.833,174.167 134.833,174.167 133.5,173.5 Z"/></g>
<g><path style="opacity:0.992" fill="#292a2b" d="M 173.5,175.5 C 173.715,177.179 173.048,178.179 171.5,178.5C 171.217,177.711 170.717,177.044 170,176.5C 169.043,180.099 169.543,183.432 171.5,186.5C 170.167,186.833 168.833,187.167 167.5,187.5C 165.667,187.415 164.334,186.748 163.5,185.5C 164.765,184.486 165.431,182.986 165.5,181C 165.333,179.5 165.167,178 165,176.5C 162.454,180.725 161.12,180.392 161,175.5C 160.501,179.486 160.334,183.486 160.5,187.5C 159.167,187.5 157.833,187.5 156.5,187.5C 155.559,185.95 154.893,184.284 154.5,182.5C 154.461,181.417 154.127,180.417 153.5,179.5C 153.97,178.537 154.637,178.537 155.5,179.5C 156.222,179.918 156.722,180.584 157,181.5C 157.743,179.126 157.243,177.126 155.5,175.5C 161.5,174.167 167.5,174.167 173.5,175.5 Z"/></g>
<g><path style="opacity:0.004" fill="#736161" d="M 163.5,184.5 C 163.34,182.801 163.506,181.134 164,179.5C 164.78,181.387 164.613,183.054 163.5,184.5 Z"/></g>
<g><path style="opacity:0.004" fill="#947776" d="M 162.5,184.5 C 161.402,183.399 161.235,182.066 162,180.5C 162.49,181.793 162.657,183.127 162.5,184.5 Z"/></g>
<g><path style="opacity:0.004" fill="#303534" d="M 162.5,184.5 C 162.833,184.5 163.167,184.5 163.5,184.5C 163.5,184.833 163.5,185.167 163.5,185.5C 163.167,185.167 162.833,184.833 162.5,184.5 Z"/></g>
<g><path style="opacity:0.008" fill="#3a3d3c" d="M 162.5,185.5 C 162.631,186.239 162.464,186.906 162,187.5C 161.308,186.563 161.475,185.897 162.5,185.5 Z"/></g>
<g><path style="opacity:0.768" fill="#18191a" d="M 179.5,185.5 C 180.5,185.5 181.5,185.5 182.5,185.5C 182.5,182.5 182.5,179.5 182.5,176.5C 182.389,175.883 182.056,175.383 181.5,175C 182.793,174.51 184.127,174.343 185.5,174.5C 185.185,178.371 185.518,182.038 186.5,185.5C 187.492,185.672 188.158,185.338 188.5,184.5C 190.176,183.817 190.843,182.483 190.5,180.5C 191.022,178.781 192.022,177.448 193.5,176.5C 193.833,176.5 194.167,176.5 194.5,176.5C 194.736,179.609 194.403,182.609 193.5,185.5C 192.5,185.833 191.833,186.5 191.5,187.5C 168.833,187.833 168.833,188.167 191.5,188.5C 185.654,189.817 179.654,189.817 173.5,188.5C 172.185,187.105 172.519,186.105 174.5,185.5C 175.751,182.126 175.751,178.793 174.5,175.5C 176.288,174.378 178.288,174.211 180.5,175C 179.28,176.525 178.613,178.359 178.5,180.5C 178.507,182.369 178.84,184.036 179.5,185.5 Z M 189.5,177.5 C 190.404,178.209 190.737,179.209 190.5,180.5C 190.843,182.483 190.176,183.817 188.5,184.5C 188.573,182.211 188.906,179.878 189.5,177.5 Z M 189.5,177.5 C 188.275,178.152 187.608,179.319 187.5,181C 187.514,182.385 187.848,183.551 188.5,184.5C 188.158,185.338 187.492,185.672 186.5,185.5C 186.5,182.5 186.5,179.5 186.5,176.5C 187.791,176.263 188.791,176.596 189.5,177.5 Z M 182.5,176.5 C 182.5,179.5 182.5,182.5 182.5,185.5C 181.5,185.5 180.5,185.5 179.5,185.5C 179.335,182.482 179.502,179.482 180,176.5C 180.333,179.167 180.667,181.833 181,184.5C 181.183,181.635 181.683,178.969 182.5,176.5 Z"/></g>
<g><path style="opacity:0.008" fill="#403c3c" d="M 189.5,177.5 C 188.906,179.878 188.573,182.211 188.5,184.5C 187.848,183.551 187.514,182.385 187.5,181C 187.608,179.319 188.275,178.152 189.5,177.5 Z"/></g>
<g><path style="opacity:0.747" fill="#242526" d="M 203.5,182.5 C 205.886,182.259 207.886,182.925 209.5,184.5C 210.167,185.833 210.833,185.833 211.5,184.5C 212.757,183.377 212.424,182.711 210.5,182.5C 209.329,181.655 207.995,180.989 206.5,180.5C 206.166,177.812 206.832,175.479 208.5,173.5C 210.833,173.5 213.167,173.5 215.5,173.5C 215.5,175.167 215.5,176.833 215.5,178.5C 214.2,177.892 212.867,177.225 211.5,176.5C 208.917,177.242 208.917,177.908 211.5,178.5C 212.671,179.345 214.005,180.011 215.5,180.5C 215.5,182.5 215.5,184.5 215.5,186.5C 214.833,186.5 214.5,186.833 214.5,187.5C 213.209,187.263 212.209,187.596 211.5,188.5C 210.5,188.5 209.5,188.5 208.5,188.5C 207.168,187.17 206.335,185.503 206,183.5C 205.505,185.473 205.338,187.473 205.5,189.5C 201.818,189.665 198.152,189.499 194.5,189C 197.833,188.667 201.167,188.333 204.5,188C 200.367,188.094 196.701,187.26 193.5,185.5C 194.765,184.486 195.431,182.986 195.5,181C 195.492,179.293 195.158,177.793 194.5,176.5C 194.5,175.833 194.167,175.5 193.5,175.5C 197.029,173.577 201.029,172.911 205.5,173.5C 205.5,175.167 205.5,176.833 205.5,178.5C 203.801,178.66 202.134,178.494 200.5,178C 202.932,176.913 202.598,176.413 199.5,176.5C 199.5,177.5 199.5,178.5 199.5,179.5C 201.288,179.215 202.955,179.548 204.5,180.5C 204.137,181.183 203.804,181.85 203.5,182.5 Z M 210.5,182.5 C 212.424,182.711 212.757,183.377 211.5,184.5C 211.167,183.833 210.833,183.167 210.5,182.5 Z M 203.5,182.5 C 202.952,184.532 201.619,185.532 199.5,185.5C 199.343,184.127 199.51,182.793 200,181.5C 201.145,181.619 202.312,181.952 203.5,182.5 Z"/></g>
<g><path style="opacity:0.012" fill="#121314" d="M 210.5,182.5 C 210.833,183.167 211.167,183.833 211.5,184.5C 210.833,184.5 210.167,184.5 209.5,184.5C 209.328,183.508 209.662,182.842 210.5,182.5 Z"/></g>
<g><path style="opacity:0.012" fill="#323534" d="M 206.5,180.5 C 205.833,181.167 205.833,181.167 206.5,180.5 Z"/></g>
<g><path style="opacity:0.008" fill="#080b0a" d="M 211.5,177.5 C 212.833,178.167 212.833,178.167 211.5,177.5 Z"/></g>
<g><path style="opacity:0.008" fill="#181a1a" d="M 83.5,187.5 C 82.475,187.103 82.3083,186.437 83,185.5C 83.4643,186.094 83.631,186.761 83.5,187.5 Z"/></g>
<g><path style="opacity:0.012" fill="#050606" d="M 120.5,186.5 C 121.833,187.167 121.833,187.167 120.5,186.5 Z"/></g>
<g><path style="opacity:0.004" fill="#303534" d="M 83.5,187.5 C 83.8333,187.5 84.1667,187.5 84.5,187.5C 84.5,187.833 84.5,188.167 84.5,188.5C 84.1667,188.167 83.8333,187.833 83.5,187.5 Z"/></g>
<g><path style="opacity:0.008" fill="#080b0a" d="M 111.5,187.5 C 111.5,187.833 111.5,188.167 111.5,188.5C 110.83,188.019 110.83,187.685 111.5,187.5 Z"/></g>
<g><path style="opacity:0.004" fill="#303534" d="M 119.5,187.5 C 119.833,187.5 120.167,187.5 120.5,187.5C 120.315,188.17 119.981,188.17 119.5,187.5 Z"/></g>
<g><path style="opacity:0.004" fill="#303534" d="M 129.5,187.5 C 129.833,187.5 130.167,187.5 130.5,187.5C 130.315,188.17 129.981,188.17 129.5,187.5 Z"/></g>
<g><path style="opacity:0.004" fill="#303534" d="M 156.5,187.5 C 156.5,187.833 156.5,188.167 156.5,188.5C 155.83,188.019 155.83,187.685 156.5,187.5 Z"/></g>
<g><path style="opacity:0.008" fill="#080b0a" d="M 191.5,187.5 C 192.833,188.167 192.833,188.167 191.5,187.5 Z"/></g>
<g><path style="opacity:0.008" fill="#080b0a" d="M 214.5,187.5 C 214.833,187.5 215.167,187.5 215.5,187.5C 215.5,187.833 215.5,188.167 215.5,188.5C 215.167,188.167 214.833,187.833 214.5,187.5 Z"/></g>
<g><path style="opacity:0.008" fill="#141515" d="M 84.5,188.5 C 90.1764,188.334 95.8431,188.501 101.5,189C 95.6513,189.818 89.9846,189.652 84.5,188.5 Z"/></g>
<g><path style="opacity:0.008" fill="#0d0e0e" d="M 103.5,189.5 C 105.288,188.378 107.288,188.211 109.5,189C 107.527,189.495 105.527,189.662 103.5,189.5 Z"/></g>
<g><path style="opacity:0.012" fill="#1a1a1b" d="M 111.5,188.5 C 112.239,188.369 112.906,188.536 113.5,189C 112.563,189.692 111.897,189.525 111.5,188.5 Z"/></g>
<g><path style="opacity:0.012" fill="#141516" d="M 116.5,188.5 C 117.5,188.5 118.5,188.5 119.5,188.5C 118.5,189.833 117.5,189.833 116.5,188.5 Z"/></g>
<g><path style="opacity:0.012" fill="#121313" d="M 129.5,188.5 C 127.372,189.629 125.039,189.796 122.5,189C 124.81,188.503 127.143,188.337 129.5,188.5 Z"/></g>
<g><path style="opacity:0.012" fill="#0a0b0b" d="M 131.5,189.5 C 136.316,188.35 141.316,188.184 146.5,189C 141.511,189.499 136.511,189.666 131.5,189.5 Z"/></g>
<g><path style="opacity:0.012" fill="#060708" d="M 147.5,189.5 C 149.288,188.378 151.288,188.211 153.5,189C 151.527,189.495 149.527,189.662 147.5,189.5 Z"/></g>
<g><path style="opacity:0.012" fill="#070809" d="M 156.5,188.5 C 157.552,188.351 158.552,188.517 159.5,189C 158.251,189.74 157.251,189.573 156.5,188.5 Z"/></g>
<g><path style="opacity:0.012" fill="#060708" d="M 164.5,189.5 C 166.628,188.371 168.961,188.204 171.5,189C 169.19,189.497 166.857,189.663 164.5,189.5 Z"/></g>
<g><path style="opacity:0.008" fill="#080b0a" d="M 208.5,188.5 C 208.103,189.525 207.437,189.692 206.5,189C 207.094,188.536 207.761,188.369 208.5,188.5 Z"/></g>
<g><path style="opacity:0.012" fill="#1f2121" d="M 211.5,188.5 C 212.5,188.5 213.5,188.5 214.5,188.5C 213.5,189.833 212.5,189.833 211.5,188.5 Z"/></g>
<g><path style="opacity:0.004" fill="#947776" d="M 114.5,189.5 C 115.833,190.167 115.833,190.167 114.5,189.5 Z"/></g>
<g><path style="opacity:0.004" fill="#947776" d="M 209.5,189.5 C 210.833,190.167 210.833,190.167 209.5,189.5 Z"/></g>
</svg>
