<?xml version="1.0" standalone="no"?>
<!DOCTYPE svg PUBLIC "-//W3C//DTD SVG 20010904//EN"
 "http://www.w3.org/TR/2001/REC-SVG-20010904/DTD/svg10.dtd">
<svg version="1.0" xmlns="http://www.w3.org/2000/svg"
 width="1200.000000pt" height="1200.000000pt" viewBox="0 0 1200.000000 1200.000000"
 preserveAspectRatio="xMidYMid meet">
<metadata>
Created by potrace 1.16, written by Peter Selinger 2001-2019
</metadata>
<g transform="translate(0.000000,1200.000000) scale(0.100000,-0.100000)"
fill="#000000" stroke="none">
<path d="M5615 11993 c-1528 -98 -2959 -775 -4002 -1892 -930 -996 -1489
-2260 -1598 -3614 -20 -247 -20 -727 0 -973 179 -2202 1541 -4116 3566 -5012
558 -247 1164 -406 1814 -477 205 -23 780 -31 1013 -16 2309 157 4308 1614
5174 3771 222 554 361 1166 408 1800 15 204 12 690 -5 906 -159 1961 -1257
3705 -2960 4704 -77 45 -241 132 -365 194 -693 344 -1449 550 -2232 606 -131
9 -685 11 -813 3z m-2025 -2179 c227 -52 416 -181 549 -377 92 -135 141 -284
148 -455 13 -292 -77 -518 -285 -713 -172 -161 -371 -239 -607 -239 -249 0
-445 81 -626 260 -181 179 -269 387 -269 639 0 334 165 620 456 791 80 47 225
96 322 109 83 12 226 5 312 -15z m4700 -2284 c459 -48 850 -238 1107 -539 179
-209 308 -481 377 -791 62 -279 59 -198 63 -2027 l4 -1673 -761 0 -760 0 0
1369 c0 1486 0 1484 -55 1691 -14 52 -48 142 -76 199 -43 89 -63 116 -137 191
-72 72 -102 94 -172 128 -134 63 -199 76 -385 76 -194 0 -291 -20 -435 -91
-81 -40 -109 -61 -191 -142 -80 -81 -103 -111 -147 -197 -55 -109 -94 -228
-119 -369 -14 -79 -17 -258 -20 -1472 l-4 -1383 -729 0 -730 0 0 2445 0 2445
730 0 730 0 0 -327 0 -327 31 48 c49 78 131 175 226 267 288 282 614 433 1038
483 67 7 326 5 415 -4z m-4130 -2585 l0 -2445 -760 0 -760 0 0 2445 0 2445
760 0 760 0 0 -2445z"/>
</g>
</svg>
